<svg xmlns="http://www.w3.org/2000/svg" viewBox="0 0 512 512" width="512" height="512">
  <rect width="512" height="512" rx="64" fill="#000"/>

  <!-- WhatsApp circle background -->
  <circle cx="256" cy="195" r="130" fill="#25D366"/>

  <!-- WhatsApp icon simplified -->
  <path d="M256 98c-53 0-96 43-96 96 0 17 4.5 33 12.3 47l-13 47 48-12.5c13.5 7.4 29 11.5 45.7 11.5 53 0 96-43 96-96s-43-93-93-93z" fill="#25D366"/>
  <path d="M256 118c-42 0-76 34-76 76 0 14.5 4 28 11 39.5l-11.5 42 43-11.3c11 6 23.5 9.5 37 9.5 42 0 76-34 76-76s-34-79.7-79.5-79.7z" fill="white"/>
  <path d="M295 240c-1.8-1-10.5-5.2-12.2-5.8s-2.8-1-4 1-4.6 5.8-5.6 7-2.1 1.4-3.8 0.5c-1.8-1-7.5-2.8-14.2-8.8-5.2-4.7-8.8-10.5-9.8-12.2s-0.1-2.7 0.8-3.6c0.8-0.8 1.8-2.1 2.7-3.1s1.2-1.8 1.8-3 0.3-2.2-0.2-3.1c-0.5-1-4-9.5-5.5-13-1.4-3.5-2.9-3-4-3h-3.4c-1.2 0-3.1 0.5-4.8 2.2s-6.2 6-6.2 14.8 6.4 17.1 7.2 18.3c1 1.2 12.5 19 30.2 26.7 4.2 1.8 7.5 2.9 10.1 3.7 4.2 1.4 8.1 1.2 11.2 0.7 3.4-0.5 10.5-4.3 12-8.4s1.5-7.7 1-8.4c-0.5-0.8-1.7-1.3-3.5-2.2z" fill="#25D366"/>

  <!-- pimec text -->
  <text x="256" y="375" text-anchor="middle" font-family="sans-serif" font-size="48" font-weight="800" fill="#FFFFFF" letter-spacing="-1">pimec</text>

  <!-- joves text -->
  <text x="256" y="412" text-anchor="middle" font-family="sans-serif" font-size="30" font-weight="400" fill="rgba(255,255,255,0.7)" letter-spacing="1">joves</text>

  <!-- Territory banner -->
  <rect x="96" y="432" width="320" height="42" rx="21" fill="#FFB877"/>
  <text x="256" y="460" text-anchor="middle" font-family="sans-serif" font-size="20" font-weight="700" fill="#000" letter-spacing="1.5">VALLÈS OCCIDENTAL</text>
</svg>
