<svg xmlns="http://www.w3.org/2000/svg" viewBox="0 0 512 512" width="512" height="512">
  <rect width="512" height="512" rx="64" fill="#000"/>
  <!-- Connection lines -->
  <line x1="180" y1="200" x2="332" y2="200" stroke="#7896FF" stroke-width="6" opacity="0.4"/>
  <line x1="180" y1="200" x2="256" y2="320" stroke="#7896FF" stroke-width="6" opacity="0.4"/>
  <line x1="332" y1="200" x2="256" y2="320" stroke="#7896FF" stroke-width="6" opacity="0.4"/>
  <!-- Person top-left -->
  <circle cx="180" cy="168" r="28" fill="#7896FF"/>
  <circle cx="180" cy="154" r="16" fill="#000"/>
  <rect x="158" y="178" width="44" height="28" rx="14" fill="#000"/>
  <!-- Person top-right -->
  <circle cx="332" cy="168" r="28" fill="#FAA4F1"/>
  <circle cx="332" cy="154" r="16" fill="#000"/>
  <rect x="310" y="178" width="44" height="28" rx="14" fill="#000"/>
  <!-- Person bottom-center -->
  <circle cx="256" cy="288" r="32" fill="#FFB877"/>
  <circle cx="256" cy="272" r="18" fill="#000"/>
  <rect x="230" y="298" width="52" height="32" rx="16" fill="#000"/>
  <!-- Handshake icon small -->
  <path d="M232 380 Q256 360 280 380" stroke="#25D366" stroke-width="8" fill="none" stroke-linecap="round"/>
  <circle cx="228" cy="382" r="8" fill="#25D366"/>
  <circle cx="284" cy="382" r="8" fill="#25D366"/>
  <!-- Label -->
  <text x="256" y="454" text-anchor="middle" font-family="sans-serif" font-size="30" font-weight="700" fill="rgba(255,255,255,0.5)">NETWORKING</text>
</svg>
